<?xml version="1.0" encoding="utf-8"?>
<!-- Uploaded to: SVG Repo, www.svgrepo.com, Generator: SVG Repo Mixer Tools -->
<svg fill="#000000" width="800px" height="800px" viewBox="0 0 32 32" version="1.1" xmlns="http://www.w3.org/2000/svg">
<title>member-card</title>
<path d="M0 26.016q0 0.832 0.576 1.408t1.44 0.576h5.984v-1.984h-0.992q-0.416 0-0.704-0.288t-0.288-0.704 0.288-0.704 0.704-0.32h4q0.384 0 0.704 0.32t0.288 0.704-0.288 0.704-0.704 0.288h-0.992v1.984h12v-1.984h-1.024q-0.384 0-0.704-0.288t-0.288-0.704 0.288-0.704 0.704-0.32h4q0.416 0 0.704 0.32t0.32 0.704-0.32 0.704-0.704 0.288h-0.992v1.984h6.016q0.8 0 1.408-0.576t0.576-1.408v-20q0-0.832-0.576-1.408t-1.408-0.608h-28q-0.832 0-1.44 0.608t-0.576 1.408v20zM4 22.016v-14.016h14.016v14.016h-14.016zM7.040 20h7.936q-1.12-1.472-2.976-1.856v-0.32q0.896-0.352 1.44-1.088t0.576-1.728v-1.984q0-1.248-0.896-2.144t-2.112-0.864-2.144 0.864-0.864 2.144v1.984q0 0.96 0.544 1.728t1.472 1.088v0.32q-1.856 0.384-2.976 1.856zM20 22.016v-2.016h2.016v2.016h-2.016zM20 18.016v-2.016h10.016v2.016h-10.016zM20 14.016v-2.016h4v2.016h-4zM20 10.016v-2.016h6.016v2.016h-6.016zM26.016 14.016v-2.016h4v2.016h-4zM28 10.016v-2.016h2.016v2.016h-2.016z"></path>
</svg>